<?xml version="1.0" encoding="UTF-8"?><svg id="Livello_1_Immagine" xmlns="http://www.w3.org/2000/svg" viewBox="0 0 629.219 630.1813"><path d="M314.0356,524.616l.2159,104.5516C157.9161,627.0452,4.8063,505.6127,1.0553,315.0841-2.3567,141.7701,152.5475.6345,314.2495,1.0007l-.0102,166.6386c-37.9754-4.9634-75.6082-48.49-114.1312-49.2823v61.0253c-22.0174-3.9044-41.6841-18.1099-64.2045-18.777l-.0013,301.7792" fill="#00132b" stroke="#d09440" stroke-miterlimit="10" stroke-width="2"/><path d="M335.5142,1.0521c385.1229,37.0508,398.0367,579.3912,0,628.1669v-104.8497l178.3438-62.1068-2.3932-304.0964h0c-10.7143-1.0702-47.6352,20.5814-61.8113,18.9205v-58.6782c-37.6979-2.799-76.231,40.3744-114.1307,49.2796" fill="#d09440"/><path d="M249.9098,315.0841l.0009,110.7465-30.9133-22.2977V144.1754c0-1.3869,0,0,0,0l105.6145,49.3386c35.8665-15.0398,68.9882-38.0976,106.0226-49.3386v157.2575l-49.9183,13.6512,52.1246,88.7079c-7.6329,7.1037-20.2558,17.6805-25.4634,21.9979l-68.6306-110.7058c33.8068-18.0734,35.1785-17.9279,60.9744-33.6018v-66.8931l-74.9394,39.8402-74.8711-37.493v64.546l57.9543,33.6018-5.9846,22.5086" fill="#d09440"/><path d="M154.7928,184.0766c8.6474,1.7461,44.9777,13.3364,47.1186,20.3852l.9211,211.5273,113.6604,89.6235-161.7001-57.4842V184.0766Z" fill="#00132b" stroke="#d09440" stroke-miterlimit="10" stroke-width="2"/><path d="M337.8948,505.6127l110.6081-89.1372,1.52-214.4354c1.6553-5.0802,39.3803-17.8493,47.194-17.9636l-.0007,263.814" fill="#d09440"/><path d="M325.9205,325.0583l8.3235-.0089c3.1503,77.2778,4.0092,100.7405,4.0092,100.7405-4.132,0-5.1812,0-12.3329.0558-.003,0,.0002-100.7875.0002-100.7875Z" fill="#d09440"/></svg>